<?xml version="1.0" encoding="UTF-8"?>
<svg width="73px" height="74px" viewBox="0 0 73 74" version="1.1" xmlns="http://www.w3.org/2000/svg" xmlns:xlink="http://www.w3.org/1999/xlink">
    <!-- Generator: Sketch 47.1 (45422) - http://www.bohemiancoding.com/sketch -->
    <title>biology</title>
    <desc>Created with Sketch.</desc>
    <defs>
        <linearGradient x1="0%" y1="0%" x2="126.794194%" y2="127.546954%" id="linearGradient-1">
            <stop stop-color="#005DE8" offset="0%"></stop>
            <stop stop-color="#E62899" offset="100%"></stop>
        </linearGradient>
    </defs>
    <g id="Page-1" stroke="none" stroke-width="1" fill="none" fill-rule="evenodd">
        <g id="Artboard" transform="translate(-1774.000000, -1197.000000)">
            <g id="biology" transform="translate(1774.000000, 1197.000000)">
                <polygon id="Rectangle-24" fill="url(#linearGradient-1)" transform="translate(14.375000, 13.375000) rotate(-45.000000) translate(-14.375000, -13.375000) " points="1.64707794 10.7233496 27.4564755 11.076903 27.8100288 16.0266504 0.939971157 16.0266504"></polygon>
                <polygon id="Rectangle-24" fill="url(#linearGradient-1)" transform="translate(58.375000, 60.375000) rotate(-45.000000) translate(-58.375000, -60.375000) " points="45.6470779 57.7233496 71.8100288 57.7233496 71.8100288 63.0266504 44.9399712 63.0266504"></polygon>
                <polygon id="Rectangle-24" fill="url(#linearGradient-1)" transform="translate(52.000000, 54.000000) rotate(-45.000000) translate(-52.000000, -54.000000) " points="40.6862915 51.1715729 64.3743687 51.5251263 64.7279221 56.4748737 39.2720779 56.8284271"></polygon>
                <polygon id="Rectangle-24" fill="url(#linearGradient-1)" transform="translate(19.875000, 19.875000) rotate(-45.000000) translate(-19.875000, -19.875000) " points="6.97030124 17.4001263 32.7796988 17.7536797 31.0119318 22.3498737 9.26839828 22.173097"></polygon>
                <polygon id="Rectangle-24" fill="url(#linearGradient-1)" transform="translate(32.562500, 33.187500) rotate(-45.000000) translate(-32.562500, -33.187500) " points="20.099743 30.7126263 45.025257 31.2429564 45.025257 35.485597 20.099743 35.6623737"></polygon>
                <polygon id="Rectangle-24" fill="url(#linearGradient-1)" transform="translate(38.875000, 38.875000) rotate(-45.000000) translate(-38.875000, -38.875000) " points="25.9703012 36.4001263 51.7796988 36.7536797 50.0119318 41.3498737 25.9703012 41.3498737"></polygon>
                <path d="M5.62510379,27.1237882 C9.27381977,30.8224865 15.5070429,31.4389363 23.2605643,28.9731373 C20.9801168,36.8328714 21.4362063,42.9973687 24.9328925,46.6960671 C27.5173996,49.4700909 32.6864139,51.9358898 43.0244425,48.6995287 C40.5919652,56.8674877 41.2000845,63.031985 44.8488005,66.7306833 L51.5381131,73.5116304 C52.4502921,74.436305 53.3624711,73.8198553 53.6665308,73.5116304 C54.2746501,72.8951807 54.2746501,71.9705061 53.6665308,71.3540563 L46.9772182,64.5731093 C44.0886513,61.6449731 43.7845917,56.2510379 46.0650392,49.161866 L46.5211287,47.4666293 L48.1934568,47.004292 C55.1868291,44.8467179 60.5078732,45.1549428 63.39644,47.9289666 L70.0857527,54.7099136 C70.9979317,55.6345882 71.9101106,55.0181385 72.2141703,54.7099136 C72.8222896,54.0934639 72.8222896,53.1687893 72.2141703,52.5523395 L65.5248577,45.7713925 C61.8761417,42.0726941 55.6429186,41.4562444 47.7373673,43.9220433 C50.9299938,33.4423979 48.3454867,28.2025752 45.7609795,25.5826638 C42.1122635,22.0380779 36.0310702,21.5757406 28.2775488,23.8874271 C30.7100261,15.8735806 29.949877,9.55497083 26.4531908,6.01038487 L20.9801168,0.462337298 C20.3719975,-0.154112433 19.4598185,-0.154112433 18.8516992,0.462337298 C18.2435799,1.07878703 18.2435799,2.00346162 18.8516992,2.61991136 L24.3247732,8.16795893 C27.3653698,11.2502076 27.5173996,17.2605925 24.7808627,25.1203265 C17.0273412,27.8943503 11.0981778,27.8943503 8.05758111,24.6579892 L2.58450715,19.1099417 C1.97638782,18.4934919 1.06420883,18.4934919 0.456089497,19.1099417 C-0.152029832,19.7263914 -0.152029832,20.651066 0.456089497,21.2675157 L5.62510379,27.1237882 Z M27.0613101,27.8943503 C34.6628017,25.1203265 40.5919652,25.1203265 43.6325619,28.2025752 C46.5211287,30.976599 46.9772182,36.5246465 44.6967707,43.7679309 L44.2406812,45.4631676 L42.568353,45.9255049 C35.4229509,48.2371914 30.1019068,47.7748541 27.21334,44.8467179 C24.3247732,41.6103568 24.3247732,35.5999719 27.0613101,27.8943503 Z" id="Shape" fill="#240F6E" fill-rule="nonzero"></path>
            </g>
        </g>
    </g>
</svg>