<?xml version="1.0" encoding="iso-8859-1"?>
<!-- Generator: Adobe Illustrator 18.1.1, SVG Export Plug-In . SVG Version: 6.00 Build 0)  -->
<svg version="1.1" id="Layer_1" xmlns="http://www.w3.org/2000/svg" xmlns:xlink="http://www.w3.org/1999/xlink" x="0px" y="0px"
	 viewBox="0 0 131.523 109.476" style="enable-background:new 0 0 131.523 109.476;" xml:space="preserve">
<g>
	<path style="fill:none;stroke:#5F2F7D;stroke-width:1.5;stroke-miterlimit:10;" d="M65.866,0.75c20.213,0,40.426,0,60.639,0
		c3.146,0,4.268,1.128,4.268,4.284c0,27.142,0,54.284,0,81.426c0,2.827-1.216,4.084-4.023,4.084
		c-40.655,0.005-81.311,0.005-121.966,0c-2.819,0-4.034-1.248-4.034-4.07c0-27.104,0-54.207,0-81.311
		c0-3.327,1.074-4.414,4.363-4.414C25.364,0.75,45.615,0.75,65.866,0.75z M125.449,6.085c-39.848,0-79.6,0-119.379,0
		c0,22.951,0,45.825,0,68.766c39.812,0,79.563,0,119.379,0C125.449,51.918,125.449,29.044,125.449,6.085z"/>
	<path style="fill:none;stroke:#5F2F7D;stroke-width:1.5;stroke-miterlimit:10;" d="M51.574,90.548c9.485,0,18.888,0,28.309,0
		c0.185,1.727,0.286,7.369,0.565,9.045c0.548,3.283,2.472,5.391,5.658,6.404c0.507,0.161,1.066,0.623,1.294,1.094
		c0.431,0.89-0.085,1.556-1.089,1.624c-0.229,0.016-0.459,0.004-0.689,0.004c-13.24,0-26.48-0.001-39.72,0.002
		c-0.809,0-1.738,0.132-1.885-0.977c-0.138-1.045,0.518-1.534,1.486-1.832c3.496-1.079,5.456-3.634,5.783-7.438
		C51.397,97.184,51.473,91.956,51.574,90.548z"/>
</g>
</svg>
