<?xml version="1.0" encoding="iso-8859-1"?>
<!-- Generator: Adobe Illustrator 18.1.1, SVG Export Plug-In . SVG Version: 6.00 Build 0)  -->
<svg version="1.1" id="Layer_1" xmlns="http://www.w3.org/2000/svg" xmlns:xlink="http://www.w3.org/1999/xlink" x="0px" y="0px"
	 viewBox="0 0 59.881 109.477" style="enable-background:new 0 0 59.881 109.477;" xml:space="preserve">
<g>
	<path style="fill:none;stroke:#5F2F7D;stroke-width:1.5;stroke-miterlimit:10;" d="M0.774,54.647
		c0-15.238,0.04-30.477-0.023-45.715C0.73,4.066,4.669,0.713,8.91,0.75c14.057,0.122,28.116,0.111,42.173,0.005
		c3.972-0.03,8.052,3.109,8.048,8.065c-0.025,30.513-0.012,61.025-0.013,91.538c0,4.956-3.159,8.313-8.085,8.331
		c-14.058,0.051-28.116,0.051-42.174,0c-4.925-0.018-8.085-3.374-8.085-8.326C0.773,85.124,0.774,69.886,0.774,54.647z
		 M54.226,48.589c0-13.094,0.001-26.188-0.001-39.281c0-2.66-1.049-3.724-3.678-3.725C36.81,5.58,23.072,5.58,9.334,5.583
		c-2.589,0-3.668,1.07-3.668,3.626c-0.001,26.259-0.001,52.518,0,78.777c0,2.686,0.986,3.669,3.676,3.669
		c13.738,0.001,27.476,0.001,41.213,0c2.682,0,3.67-0.989,3.67-3.678C54.227,74.848,54.226,61.718,54.226,48.589z M29.964,105.201
		c2.823-0.007,5.034-2.218,5.016-5.017c-0.017-2.796-2.241-5.056-5.001-5.084c-2.789-0.028-5.079,2.287-5.068,5.122
		C24.923,103.027,27.135,105.208,29.964,105.201z"/>
</g>
</svg>
